<?xml version="1.0" encoding="utf-8"?>
<!-- Generator: Adobe Illustrator 18.0.0, SVG Export Plug-In . SVG Version: 6.00 Build 0)  -->
<!DOCTYPE svg PUBLIC "-//W3C//DTD SVG 1.1//EN" "http://www.w3.org/Graphics/SVG/1.1/DTD/svg11.dtd">
<svg version="1.1" id="logo" xmlns="http://www.w3.org/2000/svg" xmlns:xlink="http://www.w3.org/1999/xlink" x="0px" y="0px"
	 viewBox="218.7 86.7 586.7 586.7" enable-background="new 218.7 86.7 586.7 586.7" xml:space="preserve">
<circle id="circle" fill="#F16522" cx="512" cy="379" r="293.3"/>
<path id="shadow" opacity="0.2" fill="#231F20" d="M674.4,302L512,139.5l18.2,198.2l-3.9-3.9L335.8,441l95.2,95.2l-78.5,14.2
	L483.7,671c9.3,0.9,18.7,1.4,28.3,1.4c162,0,293.3-131.3,293.3-293.3c0-17.7-1.6-35-4.6-51.8L717.9,247L674.4,302z"/>
<g id="crown">
	<g>
		<ellipse fill="#FFFFFF" cx="512" cy="448.6" rx="37.4" ry="52.6"/>
	</g>
	<path fill="#FFFFFF" d="M595,361.3l-83-221.8l-83,221.8L306.1,247l29.7,194c44.7-0.8,92.5-1.7,128.5-2.2
		c3.3-32.9,23.4-58.2,47.7-58.2c24.3,0,44.4,25.3,47.7,58.2c35.9,0.5,83.7,1.3,128.5,2.1l29.7-194L595,361.3z"/>
	<path fill="#FFFFFF" d="M557,472.8c-6.9,25.6-24.5,43.7-45,43.7c-20.6,0-38.1-18.2-45-43.7c-34.9,0.5-81.7,1.3-126,2.1l11.6,75.6
		H512h159.5l11.6-75.6C638.6,474.1,591.8,473.3,557,472.8z"/>
</g>
</svg>
